<svg width="240" height="168" viewBox="0 0 240 168" fill="none" xmlns="http://www.w3.org/2000/svg">
<g opacity="0.4">
<circle opacity="0.4" cx="2.09278" cy="165.907" r="2.09302" transform="rotate(-90 2.09278 165.907)" fill="#262B35"/>
<circle opacity="0.4" cx="20.2323" cy="165.907" r="2.09302" transform="rotate(-90 20.2323 165.907)" fill="#262B35"/>
<circle opacity="0.4" cx="38.3718" cy="165.907" r="2.09302" transform="rotate(-90 38.3718 165.907)" fill="#262B35"/>
<circle opacity="0.4" cx="56.5114" cy="165.907" r="2.09302" transform="rotate(-90 56.5114 165.907)" fill="#262B35"/>
<circle opacity="0.4" cx="74.6509" cy="165.907" r="2.09302" transform="rotate(-90 74.6509 165.907)" fill="#262B35"/>
<circle opacity="0.4" cx="92.7905" cy="165.907" r="2.09302" transform="rotate(-90 92.7905 165.907)" fill="#262B35"/>
<circle opacity="0.4" cx="110.93" cy="165.907" r="2.09302" transform="rotate(-90 110.93 165.907)" fill="#262B35"/>
<circle opacity="0.4" cx="129.07" cy="165.907" r="2.09302" transform="rotate(-90 129.07 165.907)" fill="#262B35"/>
<circle opacity="0.4" cx="147.209" cy="165.907" r="2.09302" transform="rotate(-90 147.209 165.907)" fill="#262B35"/>
<circle opacity="0.4" cx="165.349" cy="165.907" r="2.09302" transform="rotate(-90 165.349 165.907)" fill="#262B35"/>
<circle opacity="0.4" cx="183.488" cy="165.907" r="2.09302" transform="rotate(-90 183.488 165.907)" fill="#262B35"/>
<circle opacity="0.4" cx="201.628" cy="165.907" r="2.09302" transform="rotate(-90 201.628 165.907)" fill="#262B35"/>
<circle opacity="0.4" cx="219.767" cy="165.907" r="2.09302" transform="rotate(-90 219.767 165.907)" fill="#262B35"/>
<circle opacity="0.4" cx="237.907" cy="165.907" r="2.09302" transform="rotate(-90 237.907 165.907)" fill="#262B35"/>
<circle opacity="0.4" cx="2.09278" cy="147.767" r="2.09302" transform="rotate(-90 2.09278 147.767)" fill="#262B35"/>
<circle opacity="0.4" cx="20.2323" cy="147.767" r="2.09302" transform="rotate(-90 20.2323 147.767)" fill="#262B35"/>
<circle opacity="0.4" cx="38.3718" cy="147.767" r="2.09302" transform="rotate(-90 38.3718 147.767)" fill="#262B35"/>
<circle opacity="0.4" cx="56.5114" cy="147.767" r="2.09302" transform="rotate(-90 56.5114 147.767)" fill="#262B35"/>
<circle opacity="0.4" cx="74.6509" cy="147.767" r="2.09302" transform="rotate(-90 74.6509 147.767)" fill="#262B35"/>
<circle opacity="0.4" cx="92.7905" cy="147.767" r="2.09302" transform="rotate(-90 92.7905 147.767)" fill="#262B35"/>
<circle opacity="0.4" cx="110.93" cy="147.767" r="2.09302" transform="rotate(-90 110.93 147.767)" fill="#262B35"/>
<circle opacity="0.4" cx="129.07" cy="147.767" r="2.09302" transform="rotate(-90 129.07 147.767)" fill="#262B35"/>
<circle opacity="0.4" cx="147.209" cy="147.767" r="2.09302" transform="rotate(-90 147.209 147.767)" fill="#262B35"/>
<circle opacity="0.4" cx="165.349" cy="147.767" r="2.09302" transform="rotate(-90 165.349 147.767)" fill="#262B35"/>
<circle opacity="0.4" cx="183.488" cy="147.767" r="2.09302" transform="rotate(-90 183.488 147.767)" fill="#262B35"/>
<circle opacity="0.4" cx="201.628" cy="147.767" r="2.09302" transform="rotate(-90 201.628 147.767)" fill="#262B35"/>
<circle opacity="0.4" cx="219.767" cy="147.767" r="2.09302" transform="rotate(-90 219.767 147.767)" fill="#262B35"/>
<circle opacity="0.4" cx="237.907" cy="147.767" r="2.09302" transform="rotate(-90 237.907 147.767)" fill="#262B35"/>
<circle opacity="0.4" cx="2.09278" cy="129.628" r="2.09302" transform="rotate(-90 2.09278 129.628)" fill="#262B35"/>
<circle opacity="0.4" cx="20.2323" cy="129.628" r="2.09302" transform="rotate(-90 20.2323 129.628)" fill="#262B35"/>
<circle opacity="0.4" cx="38.3718" cy="129.628" r="2.09302" transform="rotate(-90 38.3718 129.628)" fill="#262B35"/>
<circle opacity="0.4" cx="56.5114" cy="129.628" r="2.09302" transform="rotate(-90 56.5114 129.628)" fill="#262B35"/>
<circle opacity="0.4" cx="74.6509" cy="129.628" r="2.09302" transform="rotate(-90 74.6509 129.628)" fill="#262B35"/>
<circle opacity="0.4" cx="92.7905" cy="129.628" r="2.09302" transform="rotate(-90 92.7905 129.628)" fill="#262B35"/>
<circle opacity="0.4" cx="110.93" cy="129.628" r="2.09302" transform="rotate(-90 110.93 129.628)" fill="#262B35"/>
<circle opacity="0.4" cx="129.07" cy="129.628" r="2.09302" transform="rotate(-90 129.07 129.628)" fill="#262B35"/>
<circle opacity="0.4" cx="147.209" cy="129.628" r="2.09302" transform="rotate(-90 147.209 129.628)" fill="#262B35"/>
<circle opacity="0.4" cx="165.349" cy="129.628" r="2.09302" transform="rotate(-90 165.349 129.628)" fill="#262B35"/>
<circle opacity="0.4" cx="183.488" cy="129.628" r="2.09302" transform="rotate(-90 183.488 129.628)" fill="#262B35"/>
<circle opacity="0.4" cx="201.628" cy="129.628" r="2.09302" transform="rotate(-90 201.628 129.628)" fill="#262B35"/>
<circle opacity="0.4" cx="219.767" cy="129.628" r="2.09302" transform="rotate(-90 219.767 129.628)" fill="#262B35"/>
<circle opacity="0.4" cx="237.907" cy="129.628" r="2.09302" transform="rotate(-90 237.907 129.628)" fill="#262B35"/>
<circle opacity="0.4" cx="2.09278" cy="111.488" r="2.09302" transform="rotate(-90 2.09278 111.488)" fill="#262B35"/>
<circle opacity="0.4" cx="20.2323" cy="111.488" r="2.09302" transform="rotate(-90 20.2323 111.488)" fill="#262B35"/>
<circle opacity="0.4" cx="38.3718" cy="111.488" r="2.09302" transform="rotate(-90 38.3718 111.488)" fill="#262B35"/>
<circle opacity="0.4" cx="56.5114" cy="111.488" r="2.09302" transform="rotate(-90 56.5114 111.488)" fill="#262B35"/>
<circle opacity="0.4" cx="74.6509" cy="111.488" r="2.09302" transform="rotate(-90 74.6509 111.488)" fill="#262B35"/>
<circle opacity="0.4" cx="92.7905" cy="111.488" r="2.09302" transform="rotate(-90 92.7905 111.488)" fill="#262B35"/>
<circle opacity="0.4" cx="110.93" cy="111.488" r="2.09302" transform="rotate(-90 110.93 111.488)" fill="#262B35"/>
<circle opacity="0.4" cx="129.07" cy="111.488" r="2.09302" transform="rotate(-90 129.07 111.488)" fill="#262B35"/>
<circle opacity="0.4" cx="147.209" cy="111.488" r="2.09302" transform="rotate(-90 147.209 111.488)" fill="#262B35"/>
<circle opacity="0.4" cx="165.349" cy="111.488" r="2.09302" transform="rotate(-90 165.349 111.488)" fill="#262B35"/>
<circle opacity="0.4" cx="183.488" cy="111.488" r="2.09302" transform="rotate(-90 183.488 111.488)" fill="#262B35"/>
<circle opacity="0.4" cx="201.628" cy="111.488" r="2.09302" transform="rotate(-90 201.628 111.488)" fill="#262B35"/>
<circle opacity="0.4" cx="219.767" cy="111.488" r="2.09302" transform="rotate(-90 219.767 111.488)" fill="#262B35"/>
<circle opacity="0.4" cx="237.907" cy="111.488" r="2.09302" transform="rotate(-90 237.907 111.488)" fill="#262B35"/>
<circle opacity="0.4" cx="2.09278" cy="93.3486" r="2.09302" transform="rotate(-90 2.09278 93.3486)" fill="#262B35"/>
<circle opacity="0.4" cx="20.2323" cy="93.3486" r="2.09302" transform="rotate(-90 20.2323 93.3486)" fill="#262B35"/>
<circle opacity="0.4" cx="38.3718" cy="93.3486" r="2.09302" transform="rotate(-90 38.3718 93.3486)" fill="#262B35"/>
<circle opacity="0.4" cx="56.5114" cy="93.3486" r="2.09302" transform="rotate(-90 56.5114 93.3486)" fill="#262B35"/>
<circle opacity="0.4" cx="74.6509" cy="93.3486" r="2.09302" transform="rotate(-90 74.6509 93.3486)" fill="#262B35"/>
<circle opacity="0.4" cx="92.7905" cy="93.3486" r="2.09302" transform="rotate(-90 92.7905 93.3486)" fill="#262B35"/>
<circle opacity="0.4" cx="110.93" cy="93.3486" r="2.09302" transform="rotate(-90 110.93 93.3486)" fill="#262B35"/>
<circle opacity="0.4" cx="129.07" cy="93.3486" r="2.09302" transform="rotate(-90 129.07 93.3486)" fill="#262B35"/>
<circle opacity="0.4" cx="147.209" cy="93.3486" r="2.09302" transform="rotate(-90 147.209 93.3486)" fill="#262B35"/>
<circle opacity="0.4" cx="165.349" cy="93.3486" r="2.09302" transform="rotate(-90 165.349 93.3486)" fill="#262B35"/>
<circle opacity="0.4" cx="183.488" cy="93.3486" r="2.09302" transform="rotate(-90 183.488 93.3486)" fill="#262B35"/>
<circle opacity="0.4" cx="201.628" cy="93.3486" r="2.09302" transform="rotate(-90 201.628 93.3486)" fill="#262B35"/>
<circle opacity="0.4" cx="219.767" cy="93.3486" r="2.09302" transform="rotate(-90 219.767 93.3486)" fill="#262B35"/>
<circle opacity="0.4" cx="237.907" cy="93.3486" r="2.09302" transform="rotate(-90 237.907 93.3486)" fill="#262B35"/>
<circle opacity="0.4" cx="2.09278" cy="75.209" r="2.09302" transform="rotate(-90 2.09278 75.209)" fill="#262B35"/>
<circle opacity="0.4" cx="20.2323" cy="75.209" r="2.09302" transform="rotate(-90 20.2323 75.209)" fill="#262B35"/>
<circle opacity="0.4" cx="38.3718" cy="75.209" r="2.09302" transform="rotate(-90 38.3718 75.209)" fill="#262B35"/>
<circle opacity="0.4" cx="56.5114" cy="75.209" r="2.09302" transform="rotate(-90 56.5114 75.209)" fill="#262B35"/>
<circle opacity="0.4" cx="74.6509" cy="75.209" r="2.09302" transform="rotate(-90 74.6509 75.209)" fill="#262B35"/>
<circle opacity="0.4" cx="92.7905" cy="75.209" r="2.09302" transform="rotate(-90 92.7905 75.209)" fill="#262B35"/>
<circle opacity="0.4" cx="110.93" cy="75.209" r="2.09302" transform="rotate(-90 110.93 75.209)" fill="#262B35"/>
<circle opacity="0.4" cx="129.07" cy="75.209" r="2.09302" transform="rotate(-90 129.07 75.209)" fill="#262B35"/>
<circle opacity="0.4" cx="147.209" cy="75.209" r="2.09302" transform="rotate(-90 147.209 75.209)" fill="#262B35"/>
<circle opacity="0.4" cx="165.349" cy="75.209" r="2.09302" transform="rotate(-90 165.349 75.209)" fill="#262B35"/>
<circle opacity="0.4" cx="183.488" cy="75.209" r="2.09302" transform="rotate(-90 183.488 75.209)" fill="#262B35"/>
<circle opacity="0.4" cx="201.628" cy="75.209" r="2.09302" transform="rotate(-90 201.628 75.209)" fill="#262B35"/>
<circle opacity="0.4" cx="219.767" cy="75.209" r="2.09302" transform="rotate(-90 219.767 75.209)" fill="#262B35"/>
<circle opacity="0.4" cx="237.907" cy="75.209" r="2.09302" transform="rotate(-90 237.907 75.209)" fill="#262B35"/>
<circle opacity="0.4" cx="2.09278" cy="57.0696" r="2.09302" transform="rotate(-90 2.09278 57.0696)" fill="#262B35"/>
<circle opacity="0.4" cx="20.2323" cy="57.0696" r="2.09302" transform="rotate(-90 20.2323 57.0696)" fill="#262B35"/>
<circle opacity="0.4" cx="38.3718" cy="57.0696" r="2.09302" transform="rotate(-90 38.3718 57.0696)" fill="#262B35"/>
<circle opacity="0.4" cx="56.5114" cy="57.0696" r="2.09302" transform="rotate(-90 56.5114 57.0696)" fill="#262B35"/>
<circle opacity="0.4" cx="74.6509" cy="57.0696" r="2.09302" transform="rotate(-90 74.6509 57.0696)" fill="#262B35"/>
<circle opacity="0.4" cx="92.7905" cy="57.0696" r="2.09302" transform="rotate(-90 92.7905 57.0696)" fill="#262B35"/>
<circle opacity="0.4" cx="110.93" cy="57.0696" r="2.09302" transform="rotate(-90 110.93 57.0696)" fill="#262B35"/>
<circle opacity="0.4" cx="129.07" cy="57.0696" r="2.09302" transform="rotate(-90 129.07 57.0696)" fill="#262B35"/>
<circle opacity="0.4" cx="147.209" cy="57.0696" r="2.09302" transform="rotate(-90 147.209 57.0696)" fill="#262B35"/>
<circle opacity="0.4" cx="165.349" cy="57.0696" r="2.09302" transform="rotate(-90 165.349 57.0696)" fill="#262B35"/>
<circle opacity="0.4" cx="183.488" cy="57.0696" r="2.09302" transform="rotate(-90 183.488 57.0696)" fill="#262B35"/>
<circle opacity="0.4" cx="201.628" cy="57.0696" r="2.09302" transform="rotate(-90 201.628 57.0696)" fill="#262B35"/>
<circle opacity="0.4" cx="219.767" cy="57.0696" r="2.09302" transform="rotate(-90 219.767 57.0696)" fill="#262B35"/>
<circle opacity="0.4" cx="237.907" cy="57.0696" r="2.09302" transform="rotate(-90 237.907 57.0696)" fill="#262B35"/>
<circle opacity="0.4" cx="2.09278" cy="38.9302" r="2.09302" transform="rotate(-90 2.09278 38.9302)" fill="#262B35"/>
<circle opacity="0.4" cx="20.2323" cy="38.9302" r="2.09302" transform="rotate(-90 20.2323 38.9302)" fill="#262B35"/>
<circle opacity="0.4" cx="38.3718" cy="38.9302" r="2.09302" transform="rotate(-90 38.3718 38.9302)" fill="#262B35"/>
<circle opacity="0.4" cx="56.5114" cy="38.9302" r="2.09302" transform="rotate(-90 56.5114 38.9302)" fill="#262B35"/>
<circle opacity="0.4" cx="74.6509" cy="38.9302" r="2.09302" transform="rotate(-90 74.6509 38.9302)" fill="#262B35"/>
<circle opacity="0.4" cx="92.7905" cy="38.9302" r="2.09302" transform="rotate(-90 92.7905 38.9302)" fill="#262B35"/>
<circle opacity="0.4" cx="110.93" cy="38.9302" r="2.09302" transform="rotate(-90 110.93 38.9302)" fill="#262B35"/>
<circle opacity="0.4" cx="129.07" cy="38.9302" r="2.09302" transform="rotate(-90 129.07 38.9302)" fill="#262B35"/>
<circle opacity="0.4" cx="147.209" cy="38.9302" r="2.09302" transform="rotate(-90 147.209 38.9302)" fill="#262B35"/>
<circle opacity="0.4" cx="165.349" cy="38.9302" r="2.09302" transform="rotate(-90 165.349 38.9302)" fill="#262B35"/>
<circle opacity="0.4" cx="183.488" cy="38.9302" r="2.09302" transform="rotate(-90 183.488 38.9302)" fill="#262B35"/>
<circle opacity="0.4" cx="201.628" cy="38.9302" r="2.09302" transform="rotate(-90 201.628 38.9302)" fill="#262B35"/>
<circle opacity="0.4" cx="219.767" cy="38.9302" r="2.09302" transform="rotate(-90 219.767 38.9302)" fill="#262B35"/>
<circle opacity="0.4" cx="237.907" cy="38.9302" r="2.09302" transform="rotate(-90 237.907 38.9302)" fill="#262B35"/>
<circle opacity="0.4" cx="2.09278" cy="20.7903" r="2.09302" transform="rotate(-90 2.09278 20.7903)" fill="#262B35"/>
<circle opacity="0.4" cx="20.2323" cy="20.7903" r="2.09302" transform="rotate(-90 20.2323 20.7903)" fill="#262B35"/>
<circle opacity="0.4" cx="38.3718" cy="20.7903" r="2.09302" transform="rotate(-90 38.3718 20.7903)" fill="#262B35"/>
<circle opacity="0.4" cx="56.5114" cy="20.7903" r="2.09302" transform="rotate(-90 56.5114 20.7903)" fill="#262B35"/>
<circle opacity="0.4" cx="74.6509" cy="20.7903" r="2.09302" transform="rotate(-90 74.6509 20.7903)" fill="#262B35"/>
<circle opacity="0.4" cx="92.7905" cy="20.7903" r="2.09302" transform="rotate(-90 92.7905 20.7903)" fill="#262B35"/>
<circle opacity="0.4" cx="110.93" cy="20.7903" r="2.09302" transform="rotate(-90 110.93 20.7903)" fill="#262B35"/>
<circle opacity="0.4" cx="129.07" cy="20.7903" r="2.09302" transform="rotate(-90 129.07 20.7903)" fill="#262B35"/>
<circle opacity="0.4" cx="147.209" cy="20.7903" r="2.09302" transform="rotate(-90 147.209 20.7903)" fill="#262B35"/>
<circle opacity="0.4" cx="165.349" cy="20.7903" r="2.09302" transform="rotate(-90 165.349 20.7903)" fill="#262B35"/>
<circle opacity="0.4" cx="183.488" cy="20.7903" r="2.09302" transform="rotate(-90 183.488 20.7903)" fill="#262B35"/>
<circle opacity="0.4" cx="201.628" cy="20.7903" r="2.09302" transform="rotate(-90 201.628 20.7903)" fill="#262B35"/>
<circle opacity="0.4" cx="219.767" cy="20.7903" r="2.09302" transform="rotate(-90 219.767 20.7903)" fill="#262B35"/>
<circle opacity="0.4" cx="237.907" cy="20.7903" r="2.09302" transform="rotate(-90 237.907 20.7903)" fill="#262B35"/>
<circle opacity="0.4" cx="2.09278" cy="2.65087" r="2.09302" transform="rotate(-90 2.09278 2.65087)" fill="#262B35"/>
<circle opacity="0.4" cx="20.2323" cy="2.65087" r="2.09302" transform="rotate(-90 20.2323 2.65087)" fill="#262B35"/>
<circle opacity="0.4" cx="38.3718" cy="2.65087" r="2.09302" transform="rotate(-90 38.3718 2.65087)" fill="#262B35"/>
<circle opacity="0.4" cx="56.5114" cy="2.65087" r="2.09302" transform="rotate(-90 56.5114 2.65087)" fill="#262B35"/>
<circle opacity="0.4" cx="74.6509" cy="2.65087" r="2.09302" transform="rotate(-90 74.6509 2.65087)" fill="#262B35"/>
<circle opacity="0.4" cx="92.7905" cy="2.65087" r="2.09302" transform="rotate(-90 92.7905 2.65087)" fill="#262B35"/>
<circle opacity="0.4" cx="110.93" cy="2.65087" r="2.09302" transform="rotate(-90 110.93 2.65087)" fill="#262B35"/>
<circle opacity="0.4" cx="129.07" cy="2.65087" r="2.09302" transform="rotate(-90 129.07 2.65087)" fill="#262B35"/>
<circle opacity="0.4" cx="147.209" cy="2.65087" r="2.09302" transform="rotate(-90 147.209 2.65087)" fill="#262B35"/>
<circle opacity="0.4" cx="165.349" cy="2.65087" r="2.09302" transform="rotate(-90 165.349 2.65087)" fill="#262B35"/>
<circle opacity="0.4" cx="183.488" cy="2.65087" r="2.09302" transform="rotate(-90 183.488 2.65087)" fill="#262B35"/>
<circle opacity="0.4" cx="201.628" cy="2.65087" r="2.09302" transform="rotate(-90 201.628 2.65087)" fill="#262B35"/>
<circle opacity="0.4" cx="219.767" cy="2.65087" r="2.09302" transform="rotate(-90 219.767 2.65087)" fill="#262B35"/>
<circle opacity="0.4" cx="237.907" cy="2.65087" r="2.09302" transform="rotate(-90 237.907 2.65087)" fill="#262B35"/>
</g>
</svg>
